<svg width="32" height="32" viewBox="0 0 32 32" fill="none" xmlns="http://www.w3.org/2000/svg">
<path d="M24.823 14C24.823 21 15.823 27 15.823 27C15.823 27 6.823 21 6.823 14C6.823 11.6131 7.77121 9.32387 9.45904 7.63604C11.1469 5.94821 13.436 5 15.823 5C18.2099 5 20.4991 5.94821 22.187 7.63604C23.8748 9.32387 24.823 11.6131 24.823 14Z" stroke="#C7CDD2" stroke-width="2" stroke-linecap="round" stroke-linejoin="round"/>
<path d="M16 17C17.6569 17 19 15.6569 19 14C19 12.3431 17.6569 11 16 11C14.3431 11 13 12.3431 13 14C13 15.6569 14.3431 17 16 17Z" stroke="#C7CDD2" stroke-width="2" stroke-linecap="round" stroke-linejoin="round"/>
</svg>
